[IMG]http://stpicz.com/2549_sherlock_season_2_cover_qfog.jpg[/IMG]


Three-part BBC mini-series of the BBC's fast-paced modernised crime drama based on the characters created by Arthur Conan Doyle. Laptops, mobile phones and the internet are the new tools for crime in a modern London under threat from serial killers, bombings and gang warfare. Sherlock Holmes (Benedict Cumberbatch), the most brilliant intellect of his generation, has a unique analytical brain unlike anyone else's, and staves off the ever-present threat of boredom by solving crimes, the more intricate and baffling the better. Meanwhile, his friend and flatmate, John Watson (Martin Freeman), is an army doctor invalided home from the battlefields of Afghanistan. Episodes comprise: 'A Scandal in Belgravia', 'The Hounds of Baskerville' and 'The Reichenbach Fall'.

Starring: Benedict Cumberbatch, Martin Freeman
Directors: Steven Moffat, Mark Gatiss, Steve Thompson

 
http://www.imdb.com/title/tt1475582/


 
http://stpicz.com/9953_vlcsnap_2013_04_07_10h21m36s5_o4jl.png 
http://stpicz.com/7176_vlcsnap_2013_04_07_10h12m07s199_7p7z.png 
http://stpicz.com/6169_vlcsnap_2013_04_07_10h10m40s60_jd2u.png 
http://stpicz.com/6600_vlcsnap_2013_04_07_10h07m19s125_fn1f.png 
http://stpicz.com/9735_vlcsnap_2013_04_07_09h53m40s114_fbgi.png 
http://stpicz.com/3092_vlcsnap_2013_04_07_09h56m26s243_d94i.png 
http://stpicz.com/5518_vlcsnap_2013_04_07_10h03m00s98_8txu.png


General
Unique ID: 281959922896717543164252388394550008252 (0xD41F81803297454D65A8971B390599BC)
Complete name: E:Sherlock (2011) S2E02 (The Hounds Of The Baskerville) 720p MKV x264 AC3 BRrip [Pioneer].mkv
Format : Matroska
Format version: Version 2
File size: 2.59 GiB
Duration: 1h 28mn
Overall bit rate: 4 200 Kbps
Writing application: HandBrake 0.9.8
Writing library: libmkv 0.6.5

Video
ID: 1
Format: AVC
Format/Info: Advanced Video Codec
Format profile: High@L4.0
Format settings, CABAC: Yes
Format settings, ReFrames: 5 frames
Codec ID: V_MPEG4/ISO/AVC
Duration: 1h 28mn
Bit rate: 3 668 Kbps
Width: 1 280 pixels
Height: 720 pixels
Display aspect ratio: 16:9
Frame rate mode: Constant
Frame rate: 25.000 fps
Color space: YUV
Chroma subsampling: 4:2:0
Bit depth: 8 bits
Scan type: Progressive
Bits/(Pixel*Frame): 0.159
Stream size: 2.26 GiB (87%)
Writing library: x264 core 120
Language: English
Default: Yes
Forced : No
Color primaries: BT.709
Transfer characteristics: BT.709
Matrix coefficients: BT.709

Audio
ID: 2
Format: AC-3
Format/Info: Audio Coding 3
Mode extension: CM (complete main)
Format settings, Endianness: Big
Codec ID: A_AC3
Duration: 1h 28mn
Bit rate mode: Constant
Bit rate: 448 Kbps
Channel(s): 6 channels
Channel positions: Front: L C R, Side: L R, LFE
Sampling rate: 48.0 KHz
Bit depth: 16 bits
Compression mode: Lossy
Stream size: 283 MiB (11%)
Default: Yes
Forced: No